<mxfile host="app.diagrams.net" modified="2023-12-15T08:13:03.992Z" agent="Mozilla/5.0 (Windows NT 10.0; Win64; x64) AppleWebKit/537.36 (KHTML, like Gecko) Chrome/120.0.0.0 Safari/537.36" version="22.1.9" etag="z7ILYNMGK0RsofnsZc_X" type="github">
  <diagram name="페이지-1" id="vH1mbE7xv0lSomlzYy9h">
    <mxGraphModel>
      <root>
        <mxCell id="0" />
        <mxCell id="1" parent="0" />
      </root>
    </mxGraphModel>
  </diagram>
</mxfile>
